<?xml version="1.0" standalone="no"?>
<!DOCTYPE svg PUBLIC "-//W3C//DTD SVG 20010904//EN"
 "http://www.w3.org/TR/2001/REC-SVG-20010904/DTD/svg10.dtd">
<svg version="1.0" xmlns="http://www.w3.org/2000/svg"
 width="218.000000pt" height="218.000000pt" viewBox="0 0 218.000000 218.000000"
 preserveAspectRatio="xMidYMid meet">
<metadata>
Created by potrace 1.11, written by Peter Selinger 2001-2013
</metadata>
<g transform="translate(0.000000,218.000000) scale(0.100000,-0.100000)"
fill="#000000" stroke="none">
<path d="M493 1932 l-33 -3 0 -835 0 -834 670 0 c369 0 670 3 670 8 -1 4 -40
62 -88 128 -48 67 -170 238 -271 380 -102 143 -208 291 -236 329 -28 39 -61
84 -72 101 l-22 30 345 345 c189 189 344 346 344 349 0 5 -1253 7 -1307 2z
m701 -967 c75 -104 142 -199 150 -210 8 -11 64 -90 125 -175 60 -85 114 -160
119 -165 5 -6 17 -23 26 -37 l18 -27 -540 0 -540 1 0 162 -1 161 247 247 c135
136 250 244 254 240 4 -4 68 -92 142 -197z"/>
</g>
</svg>
