{
    "asset" : {
        "generator" : "Khronos glTF Blender I/O v0.9.36",
        "version" : "2.0"
    },
    "scene" : 0,
    "scenes" : [
        {
            "name" : "Scene",
            "nodes" : [
                0,
                1,
                2
            ]
        }
    ],
    "nodes" : [
        {
            "mesh" : 0,
            "name" : "Text",
            "translation" : [
                -1.1249234676361084,
                0,
                -0.22687527537345886
            ]
        },
        {
            "mesh" : 1,
            "name" : "Cylinder.008"
        },
        {
            "mesh" : 2,
            "name" : "Cylinder.009"
        }
    ],
    "materials" : [
        {
            "doubleSided" : true,
            "name" : "Mat_B",
            "normalTexture" : {
                "index" : 0,
                "texCoord" : 0
            },
            "pbrMetallicRoughness" : {
                "baseColorFactor" : [
                    0.8000000715255737,
                    0.505577564239502,
                    0.2744786739349365,
                    1
                ],
                "metallicFactor" : 0,
                "roughnessFactor" : 0.33181771636009216
            }
        },
        {
            "doubleSided" : true,
            "name" : "Mat_A",
            "normalTexture" : {
                "index" : 1,
                "texCoord" : 0
            },
            "pbrMetallicRoughness" : {
                "baseColorFactor" : [
                    0.8000000715255737,
                    0.505577564239502,
                    0.2744786739349365,
                    1
                ],
                "metallicFactor" : 0,
                "roughnessFactor" : 0.33181771636009216
            }
        }
    ],
    "meshes" : [
        {
            "name" : "Text",
            "primitives" : [
                {
                    "attributes" : {
                        "POSITION" : 0,
                        "NORMAL" : 1
                    },
                    "indices" : 2
                }
            ]
        },
        {
            "name" : "Cylinder.020",
            "primitives" : [
                {
                    "attributes" : {
                        "POSITION" : 3,
                        "NORMAL" : 4,
                        "TEXCOORD_0" : 5
                    },
                    "indices" : 6,
                    "material" : 0
                }
            ]
        },
        {
            "name" : "Cylinder.021",
            "primitives" : [
                {
                    "attributes" : {
                        "POSITION" : 7,
                        "NORMAL" : 8,
                        "TEXCOORD_0" : 9
                    },
                    "indices" : 10,
                    "material" : 1
                }
            ]
        }
    ],
    "textures" : [
        {
            "source" : 0
        },
        {
            "source" : 1
        }
    ],
    "images" : [
        {
            "mimeType" : "image/png",
            "name" : "BNormal",
            "uri" : "BNormal.png"
        },
        {
            "mimeType" : "image/png",
            "name" : "ANormal",
            "uri" : "ANormal.png"
        }
    ],
    "accessors" : [
        {
            "bufferView" : 0,
            "componentType" : 5126,
            "count" : 713,
            "max" : [
                2.2309999465942383,
                0,
                1.2300000190734863
            ],
            "min" : [
                0.07300000637769699,
                0,
                -0.6820000410079956
            ],
            "type" : "VEC3"
        },
        {
            "bufferView" : 1,
            "componentType" : 5126,
            "count" : 713,
            "type" : "VEC3"
        },
        {
            "bufferView" : 2,
            "componentType" : 5123,
            "count" : 1515,
            "type" : "SCALAR"
        },
        {
            "bufferView" : 3,
            "componentType" : 5126,
            "count" : 37,
            "max" : [
                0.866025447845459,
                0.41515523195266724,
                1
            ],
            "min" : [
                -0.866025447845459,
                -0.07949995994567871,
                -1
            ],
            "type" : "VEC3"
        },
        {
            "bufferView" : 4,
            "componentType" : 5126,
            "count" : 37,
            "type" : "VEC3"
        },
        {
            "bufferView" : 5,
            "componentType" : 5126,
            "count" : 37,
            "type" : "VEC2"
        },
        {
            "bufferView" : 6,
            "componentType" : 5123,
            "count" : 84,
            "type" : "SCALAR"
        },
        {
            "bufferView" : 7,
            "componentType" : 5126,
            "count" : 48,
            "max" : [
                0.866025447845459,
                0.31158578395843506,
                1
            ],
            "min" : [
                -0.866025447845459,
                -0.07949995994567871,
                -1
            ],
            "type" : "VEC3"
        },
        {
            "bufferView" : 8,
            "componentType" : 5126,
            "count" : 48,
            "type" : "VEC3"
        },
        {
            "bufferView" : 9,
            "componentType" : 5126,
            "count" : 48,
            "type" : "VEC2"
        },
        {
            "bufferView" : 10,
            "componentType" : 5123,
            "count" : 84,
            "type" : "SCALAR"
        }
    ],
    "bufferViews" : [
        {
            "buffer" : 0,
            "byteLength" : 8556,
            "byteOffset" : 0
        },
        {
            "buffer" : 0,
            "byteLength" : 8556,
            "byteOffset" : 8556
        },
        {
            "buffer" : 0,
            "byteLength" : 3030,
            "byteOffset" : 17112
        },
        {
            "buffer" : 0,
            "byteLength" : 444,
            "byteOffset" : 20144
        },
        {
            "buffer" : 0,
            "byteLength" : 444,
            "byteOffset" : 20588
        },
        {
            "buffer" : 0,
            "byteLength" : 296,
            "byteOffset" : 21032
        },
        {
            "buffer" : 0,
            "byteLength" : 168,
            "byteOffset" : 21328
        },
        {
            "buffer" : 0,
            "byteLength" : 576,
            "byteOffset" : 21496
        },
        {
            "buffer" : 0,
            "byteLength" : 576,
            "byteOffset" : 22072
        },
        {
            "buffer" : 0,
            "byteLength" : 384,
            "byteOffset" : 22648
        },
        {
            "buffer" : 0,
            "byteLength" : 168,
            "byteOffset" : 23032
        }
    ],
    "buffers" : [
        {
            "byteLength" : 23200,
            "uri" : "tiles.bin"
        }
    ]
}
