{
    "asset" : {
        "generator" : "Khronos glTF Blender I/O v0.9.36",
        "version" : "2.0"
    },
    "scene" : 0,
    "scenes" : [
        {
            "name" : "Scene",
            "nodes" : [
                0
            ]
        }
    ],
    "nodes" : [
        {
            "mesh" : 0,
            "name" : "low.001",
            "rotation" : [
                0,
                -0.5,
                0,
                0.8660253882408142
            ],
            "scale" : [
                0.9979479312896729,
                0.9979479312896729,
                0.9979479312896729
            ],
            "translation" : [
                2.5384085178375244,
                0,
                -0.05686170980334282
            ]
        }
    ],
    "materials" : [
        {
            "doubleSided" : true,
            "name" : "Material.003",
            "normalTexture" : {
                "index" : 0,
                "texCoord" : 0
            },
            "pbrMetallicRoughness" : {
                "baseColorFactor" : [
                    0.8000000715255737,
                    0.0701950266957283,
                    0.1262253224849701,
                    1
                ],
                "metallicFactor" : 0.4954545497894287,
                "roughnessFactor" : 0.718181848526001
            }
        }
    ],
    "meshes" : [
        {
            "name" : "Cylinder.001",
            "primitives" : [
                {
                    "attributes" : {
                        "POSITION" : 0,
                        "NORMAL" : 1,
                        "TEXCOORD_0" : 2
                    },
                    "indices" : 3,
                    "material" : 0
                }
            ]
        }
    ],
    "textures" : [
        {
            "source" : 0
        }
    ],
    "images" : [
        {
            "mimeType" : "image/png",
            "name" : "Baking_4k",
            "uri" : "Baking_4k.png"
        }
    ],
    "accessors" : [
        {
            "bufferView" : 0,
            "componentType" : 5126,
            "count" : 378,
            "max" : [
                0.8660255670547485,
                0.19925415515899658,
                1
            ],
            "min" : [
                -0.8660255670547485,
                -0.051307618618011475,
                -1.000123381614685
            ],
            "type" : "VEC3"
        },
        {
            "bufferView" : 1,
            "componentType" : 5126,
            "count" : 378,
            "type" : "VEC3"
        },
        {
            "bufferView" : 2,
            "componentType" : 5126,
            "count" : 378,
            "type" : "VEC2"
        },
        {
            "bufferView" : 3,
            "componentType" : 5123,
            "count" : 636,
            "type" : "SCALAR"
        }
    ],
    "bufferViews" : [
        {
            "buffer" : 0,
            "byteLength" : 4536,
            "byteOffset" : 0
        },
        {
            "buffer" : 0,
            "byteLength" : 4536,
            "byteOffset" : 4536
        },
        {
            "buffer" : 0,
            "byteLength" : 3024,
            "byteOffset" : 9072
        },
        {
            "buffer" : 0,
            "byteLength" : 1272,
            "byteOffset" : 12096
        }
    ],
    "buffers" : [
        {
            "byteLength" : 13368,
            "uri" : "tile1_normal.bin"
        }
    ]
}
